<svg version="1" xmlns="http://www.w3.org/2000/svg" width="346.667" height="346.667" viewBox="0 0 260.000000 260.000000"><path d="M52.4 32c-10 2.3-14.8 4.6-19.5 9.7C25 50 23 58.3 23 83.7c0 10-.5 20.5-1.1 23.4-1.4 6.5-5.2 10.8-11.5 12.9l-4.9 1.7-.3 7.9c-.4 11.1-.1 12.1 5 12.9 5.8 1 10.3 5.8 11.7 12.5.6 2.8 1.1 13.7 1.1 24.3 0 26.9 2.5 36.9 11 44.1 6.2 5.2 20.9 9.6 32 9.6h5.1l-.3-10.7-.3-10.8-4.3-.6c-5.2-.7-9.1-3.4-11.4-8-1.4-2.8-1.8-7.2-2.2-24.4-.4-22.8-1.5-29.2-5.9-36.8-1.5-2.5-4.6-5.8-7.1-7.4l-4.4-2.9 4.6-3.5c10.2-7.6 13.3-18.7 13.1-47.1-.1-16.3 0-16.9 2.5-21.2C58 55.1 63.3 52 68.6 52h2.5l-.3-10.8-.3-10.7-5-.2c-2.7-.1-8.7.7-13.1 1.7zM190 41.9v10.8l4.2.6c4.5.6 8.1 2.8 11.2 7.1 1.9 2.5 2.2 4.6 2.7 25.4.8 24.7 1.6 29.5 6.8 37.2 1.5 2.3 4.7 5.5 6.9 7l4 2.6-4.4 2.7c-4.8 2.9-8.2 7.6-10.8 15.2-1.4 4-1.9 9.8-2.5 28.5-.5 20.1-.9 24-2.4 26.3-2.4 3.7-5.6 5.6-10.8 6.5l-4.4.8-.3 10.7-.3 10.7h5.1c7.9 0 19.9-2.9 26.3-6.3 13.4-7.1 16.6-17.6 16.7-54.2 0-14.4.3-17.6 1.9-21.1 2.3-5.1 6.3-8.2 11.3-9l3.8-.7v-10.3c0-9.2-.2-10.4-1.7-10.4-3.9-.1-10-3.9-12.4-7.6-2.3-3.7-2.4-4.9-3.1-28.4-.5-20.6-1-25.5-2.7-31-2.6-8.3-7.5-14.2-15-17.9-5.7-2.9-19.6-6.1-26.4-6.1H190v10.9zM131.5 74.6c-19.3 4.6-29.4 10.6-37.8 22.7-8.9 12.9-11.7 22.6-11.7 41.4 0 11.3.4 14.3 2.5 21.1 7.5 23.9 27.7 38.2 53.7 38.2 9.2 0 21-2.5 27.7-6l4.1-2v-8.5c0-5.1-.4-8.5-1-8.5s-2.9 1.2-5.2 2.6c-9.7 6.2-24.6 8-35.9 4.4-11.5-3.6-19.2-11.3-24-23.9-2.9-7.8-3.7-23.3-1.5-32.5 6.9-29.2 34.6-41.8 61.8-28 2.6 1.3 5 2.4 5.3 2.4.3 0 .5-4.3.5-9.5v-9.4l-6.7-2.2c-5-1.6-9.9-2.2-18.3-2.5-6.3-.1-12.4-.1-13.5.2z"/></svg>